<?xml version="1.0" standalone="no"?>
<!DOCTYPE svg PUBLIC "-//W3C//DTD SVG 20010904//EN"
 "http://www.w3.org/TR/2001/REC-SVG-20010904/DTD/svg10.dtd">
<svg version="1.0" xmlns="http://www.w3.org/2000/svg"
 width="1500.000000pt" height="1500.000000pt" viewBox="0 0 1500.000000 1500.000000"
 preserveAspectRatio="xMidYMid meet">
<metadata>
Created by potrace 1.14, written by Peter Selinger 2001-2017
</metadata>
<g transform="translate(0.000000,1500.000000) scale(0.100000,-0.100000)"
fill="#000000" stroke="none">
<path d="M5884 12276 c-5 -12 -11 -13 -25 -5 -14 7 -19 6 -19 -2 0 -8 -4 -8
-15 1 -12 10 -15 9 -15 -4 0 -10 -5 -14 -10 -11 -6 4 -8 10 -6 14 3 4 -9 6
-25 6 -17 0 -34 -7 -39 -15 -9 -14 -14 -7 -11 15 1 6 -5 2 -12 -7 -12 -15 -14
-15 -26 0 -11 16 -12 16 -7 -1 4 -13 2 -16 -7 -10 -20 12 -40 13 -56 0 -10 -8
-13 -8 -8 -1 4 7 -2 12 -18 12 -14 0 -22 -4 -19 -9 3 -5 0 -9 -5 -9 -6 0 -11
5 -11 11 0 6 -6 9 -14 6 -7 -3 -19 0 -25 6 -9 9 -11 8 -5 -7 6 -16 4 -17 -13
-8 -15 8 -23 8 -33 -1 -10 -9 -11 -9 -6 1 4 6 3 12 -3 12 -5 0 -12 -6 -14 -12
-4 -10 -6 -9 -6 1 -1 11 -4 11 -18 0 -11 -10 -14 -10 -9 -1 4 6 3 12 -1 12 -5
0 -15 -6 -22 -12 -11 -11 -12 -10 -6 2 8 13 6 13 -7 2 -13 -10 -17 -10 -20 0
-4 10 -8 10 -21 -1 -13 -10 -17 -10 -17 -1 0 10 -4 10 -16 -1 -13 -10 -17 -10
-25 2 -7 12 -9 12 -9 -1 0 -13 -1 -13 -10 0 -8 12 -10 12 -10 1 0 -10 -3 -11
-14 -2 -10 8 -20 6 -42 -11 -15 -13 -25 -17 -21 -11 5 8 -2 11 -22 11 -19 -1
-28 -5 -24 -12 4 -6 -1 -5 -10 3 -13 10 -17 10 -17 1 0 -9 -4 -9 -17 1 -14 12
-16 12 -11 -2 7 -17 -17 -20 -41 -4 -10 5 -12 4 -7 -3 5 -8 -3 -11 -24 -8 -26
3 -29 1 -18 -12 11 -13 10 -14 -9 -3 -18 9 -23 9 -23 -1 0 -9 -3 -9 -10 2 -8
12 -10 12 -10 -5 0 -17 -2 -17 -10 -5 -9 13 -10 13 -10 0 0 -13 -1 -13 -10 0
-6 10 -10 11 -10 3 0 -7 -12 -13 -26 -13 -16 0 -23 -4 -18 -12 4 -6 3 -8 -4
-4 -6 3 -14 2 -17 -4 -5 -8 -12 -7 -23 2 -14 11 -15 10 -9 -6 6 -16 5 -17 -7
-7 -12 10 -20 9 -40 -4 -14 -10 -26 -13 -27 -9 0 5 -4 0 -9 -11 -7 -17 -9 -17
-9 -2 -1 21 -17 22 -25 1 -3 -8 -10 -13 -15 -9 -5 3 -12 1 -16 -5 -3 -5 -11
-10 -16 -10 -6 0 -7 5 -3 12 5 7 3 8 -5 4 -7 -5 -10 -14 -7 -22 5 -12 2 -12
-15 -3 -12 6 -19 7 -15 1 3 -5 -8 -12 -25 -16 -20 -4 -28 -10 -23 -18 5 -8 2
-9 -9 -5 -23 9 -49 -2 -40 -17 4 -6 -1 -5 -11 3 -9 8 -16 10 -14 5 2 -5 -2
-10 -7 -12 -6 -2 -18 -10 -27 -19 -9 -8 -22 -12 -27 -8 -6 3 -11 -2 -11 -12 0
-15 -2 -16 -10 -3 -9 13 -14 11 -34 -12 -18 -20 -26 -24 -36 -15 -9 9 -11 8
-8 -3 2 -8 -3 -14 -10 -12 -8 1 -11 -2 -7 -8 3 -5 1 -10 -4 -10 -20 0 -26 -3
-39 -19 -11 -13 -12 -13 -7 -1 4 10 2 10 -8 -2 -7 -10 -26 -22 -41 -28 -15 -5
-24 -14 -21 -20 3 -6 -1 -7 -9 -4 -9 4 -18 -1 -22 -10 -3 -9 -10 -13 -16 -10
-5 3 -12 -3 -15 -15 -3 -12 -10 -21 -15 -21 -5 0 -6 4 -3 10 3 5 0 7 -9 4 -8
-3 -12 -12 -9 -20 4 -10 0 -12 -13 -7 -14 5 -16 3 -10 -13 6 -15 4 -16 -5 -7
-9 9 -16 7 -31 -10 -11 -12 -16 -16 -12 -8 5 10 3 12 -5 7 -7 -5 -10 -14 -8
-20 3 -7 -1 -13 -9 -14 -8 -1 -21 -3 -29 -4 -11 -1 -12 -5 -4 -15 11 -12 2
-18 -23 -14 -5 0 -8 -4 -8 -9 0 -6 -14 -25 -32 -43 -17 -17 -27 -25 -23 -17 8
13 7 13 -8 1 -9 -7 -17 -20 -17 -28 0 -8 -4 -11 -10 -8 -5 3 -10 1 -10 -5 0
-6 -5 -8 -12 -4 -10 6 -10 5 -1 -8 13 -15 8 -28 -11 -28 -6 0 -4 5 4 10 10 7
11 10 2 10 -7 0 -15 -7 -18 -15 -4 -8 -14 -15 -23 -16 -10 0 -11 -2 -4 -6 10
-3 10 -8 -1 -19 -8 -8 -19 -14 -25 -14 -6 0 -11 -6 -11 -14 0 -7 -10 -16 -22
-19 -18 -5 -19 -8 -8 -22 11 -13 10 -14 -5 -9 -14 6 -16 4 -10 -6 6 -10 4 -12
-10 -6 -16 6 -16 4 -4 -11 8 -9 9 -14 3 -10 -7 4 -18 -1 -25 -10 -12 -14 -12
-16 1 -8 8 5 2 -5 -15 -21 -16 -16 -33 -28 -37 -26 -4 2 -5 -4 -2 -12 3 -9 1
-16 -5 -16 -6 0 -11 -7 -11 -15 0 -9 -7 -18 -15 -21 -8 -4 -12 -10 -9 -15 3
-5 -2 -9 -11 -9 -9 0 -13 -5 -10 -10 3 -6 -1 -13 -9 -16 -9 -3 -13 -10 -10
-15 3 -5 0 -9 -6 -9 -6 0 -8 -5 -4 -12 5 -7 2 -9 -8 -5 -9 3 -15 0 -15 -6 1
-32 -4 -48 -13 -42 -5 3 -10 3 -11 -2 0 -4 -3 -17 -5 -28 -3 -11 -6 -25 -6
-32 -1 -6 -7 -9 -13 -6 -7 2 -15 -3 -19 -12 -3 -9 -2 -14 2 -11 5 3 9 -1 9 -9
0 -8 -3 -14 -6 -13 -21 2 -30 -4 -25 -17 4 -8 1 -15 -6 -15 -6 0 -8 -4 -5 -10
3 -5 2 -10 -3 -10 -6 0 -13 -7 -16 -16 -5 -12 -3 -14 7 -8 7 5 5 2 -4 -7 -14
-13 -15 -19 -6 -29 9 -10 9 -11 -1 -5 -9 4 -15 0 -19 -14 -3 -12 -10 -21 -15
-21 -6 0 -5 -6 2 -15 10 -12 8 -16 -11 -24 -13 -5 -18 -10 -10 -10 10 -1 11
-4 2 -15 -9 -11 -9 -15 1 -19 9 -4 7 -6 -4 -6 -9 -1 -20 -6 -24 -13 -4 -7 -3
-8 4 -4 7 4 12 2 12 -3 0 -6 -5 -11 -11 -11 -5 0 -7 -5 -3 -12 5 -8 2 -9 -11
-4 -14 5 -16 4 -7 -7 9 -10 8 -17 0 -25 -9 -9 -9 -12 1 -12 7 0 9 -5 6 -11 -4
-6 -13 -8 -21 -5 -8 3 -11 0 -7 -9 3 -8 10 -12 17 -9 6 3 4 0 -4 -8 -8 -7 -17
-24 -19 -38 -1 -14 -8 -28 -15 -32 -8 -6 -7 -8 2 -8 7 0 10 -5 7 -10 -4 -6
-10 -8 -15 -5 -5 3 -5 -8 0 -25 5 -17 5 -28 0 -25 -4 3 -11 -2 -14 -11 -9 -23
-8 -26 7 -18 6 4 3 -2 -7 -14 -19 -22 -19 -23 0 -37 16 -13 16 -14 1 -9 -13 5
-16 2 -10 -12 5 -13 3 -15 -8 -9 -12 7 -12 6 -1 -7 10 -13 10 -17 0 -21 -11
-4 -10 -6 0 -6 8 -1 10 -6 5 -13 -11 -19 -12 -38 -2 -38 6 0 7 -5 4 -10 -4 -6
-12 -7 -18 -3 -7 4 -6 0 2 -10 10 -13 10 -17 1 -17 -9 0 -9 -4 1 -17 8 -9 9
-14 3 -10 -7 4 -14 0 -18 -8 -3 -8 0 -17 6 -21 7 -5 8 -2 3 6 -5 9 -4 11 4 6
9 -6 9 -11 0 -22 -6 -8 -8 -14 -3 -14 5 0 2 -5 -6 -10 -8 -5 -10 -10 -3 -10
12 0 12 -18 -1 -39 -5 -8 -3 -17 5 -22 12 -8 12 -10 0 -18 -11 -7 -12 -13 -3
-23 7 -9 8 -19 2 -28 -14 -21 -12 -32 3 -24 8 6 8 3 -1 -9 -8 -9 -11 -25 -7
-38 5 -16 4 -19 -5 -14 -9 6 -10 3 -3 -10 6 -10 8 -27 5 -37 -3 -11 1 -24 9
-29 11 -7 10 -9 -5 -9 -14 0 -16 -3 -8 -13 6 -7 7 -18 2 -26 -4 -8 -6 -20 -4
-26 3 -7 6 -30 7 -53 2 -35 0 -39 -13 -29 -10 9 -9 4 4 -17 10 -16 13 -25 7
-22 -7 5 -9 1 -5 -8 4 -10 1 -16 -7 -16 -9 -1 -8 -4 4 -11 15 -9 16 -12 3 -31
-16 -22 -11 -52 8 -41 7 4 7 2 -1 -7 -9 -9 -9 -19 -2 -33 8 -13 8 -17 1 -13
-6 3 -13 2 -17 -4 -3 -5 -2 -10 3 -10 6 0 13 -7 16 -16 3 -8 2 -13 -3 -10 -5
3 -11 -1 -15 -9 -3 -8 0 -17 6 -21 7 -5 8 -2 3 6 -5 9 -4 11 4 6 8 -6 9 -12 2
-20 -6 -7 -8 -16 -4 -19 3 -4 0 -7 -8 -7 -12 0 -12 -2 0 -9 13 -8 13 -12 0
-27 -8 -10 -9 -15 -2 -11 8 5 11 -3 9 -27 -1 -19 -5 -38 -8 -42 -4 -4 -3 -15
3 -25 7 -14 6 -19 -3 -19 -9 0 -9 -3 2 -10 11 -7 11 -10 2 -10 -7 0 -10 -5 -7
-10 4 -6 12 -7 18 -3 7 3 3 -3 -7 -15 -19 -22 -19 -22 0 -22 10 0 15 -4 9 -8
-16 -11 -19 -46 -3 -36 7 4 4 -2 -6 -14 -19 -22 -19 -22 0 -22 11 0 15 -3 9
-8 -6 -4 -11 -16 -10 -27 0 -11 -4 -23 -10 -27 -6 -5 -5 -8 3 -8 9 0 10 -6 4
-17 -10 -21 -10 -33 1 -50 4 -6 3 -15 -3 -18 -8 -5 -7 -11 1 -21 9 -11 9 -14
0 -14 -9 0 -9 -5 -1 -20 8 -15 8 -20 -2 -21 -7 0 -4 -4 7 -9 11 -5 14 -9 7 -9
-7 -1 -11 -5 -7 -10 3 -5 1 -13 -5 -16 -8 -5 -8 -11 0 -20 8 -10 8 -15 0 -20
-8 -5 -8 -11 1 -21 9 -11 8 -14 -2 -14 -12 0 -12 -2 -1 -9 8 -4 14 -12 14 -16
0 -4 -6 -12 -14 -16 -10 -6 -8 -9 7 -9 12 0 16 -3 9 -8 -6 -4 -10 -15 -8 -24
1 -10 -3 -18 -9 -18 -9 0 -9 -2 -1 -8 14 -9 14 -72 0 -72 -6 0 -5 -4 3 -9 13
-8 13 -12 0 -27 -16 -19 -16 -24 2 -35 10 -6 10 -11 0 -22 -8 -10 -8 -17 -2
-21 6 -4 8 -13 4 -21 -3 -9 1 -15 8 -15 9 -1 8 -4 -4 -11 -13 -8 -15 -15 -8
-28 7 -12 6 -22 -1 -29 -7 -7 -8 -12 -2 -12 5 0 10 -9 11 -20 1 -13 -2 -18
-10 -14 -9 5 -9 4 0 -6 8 -8 9 -20 3 -36 -8 -19 -6 -24 8 -25 11 0 12 -2 4 -6
-10 -4 -10 -8 -1 -19 10 -12 9 -13 -5 -8 -16 6 -16 4 -2 -31 15 -35 15 -37 -1
-24 -14 12 -16 12 -9 0 13 -20 15 -71 4 -71 -7 0 -6 -5 1 -13 8 -10 7 -17 -1
-25 -9 -9 -8 -15 7 -26 18 -13 18 -13 -1 -24 -13 -8 -14 -11 -5 -12 8 0 11 -3
8 -7 -4 -3 -1 -13 6 -21 10 -13 9 -14 -2 -8 -10 7 -12 3 -6 -13 4 -13 2 -21
-6 -21 -9 0 -9 -3 0 -14 9 -10 9 -16 1 -21 -8 -5 -8 -11 -1 -19 7 -9 7 -16 -1
-24 -7 -7 -8 -12 -2 -12 5 0 10 -13 9 -30 0 -16 -4 -30 -9 -30 -5 0 -4 -6 3
-13 8 -10 7 -17 -2 -27 -9 -10 -9 -11 1 -5 16 8 13 -26 -3 -37 -6 -5 -6 -8 2
-8 6 0 10 -8 8 -17 -1 -10 3 -24 9 -32 8 -11 8 -13 0 -8 -7 4 -14 0 -18 -8 -3
-8 -1 -17 5 -21 6 -4 6 -11 -2 -20 -10 -12 -8 -17 6 -28 18 -13 18 -14 -1 -24
-10 -6 -14 -12 -7 -12 6 0 9 -9 6 -20 -3 -13 0 -20 8 -20 9 -1 8 -4 -4 -11
-14 -8 -16 -14 -6 -25 9 -11 9 -17 -1 -29 -9 -10 -9 -15 -1 -15 13 0 10 -22
-4 -32 -6 -5 -6 -8 2 -8 11 0 9 -48 -3 -59 -2 -2 1 -10 7 -17 7 -8 7 -14 0
-19 -7 -4 -5 -17 6 -38 16 -31 15 -31 -2 -17 -14 11 -17 11 -11 1 13 -20 15
-71 4 -71 -7 0 -6 -5 1 -13 8 -10 7 -17 -1 -25 -9 -9 -8 -15 7 -26 18 -13 18
-13 -1 -24 -10 -6 -14 -12 -8 -12 13 0 15 -31 2 -47 -5 -7 -5 -14 1 -17 9 -6
9 -22 0 -51 -2 -5 3 -21 10 -34 7 -13 8 -21 3 -17 -6 3 -13 2 -17 -4 -3 -5 0
-10 7 -10 11 0 10 -2 0 -9 -11 -6 -10 -10 5 -15 17 -7 17 -8 -1 -22 -11 -8
-15 -14 -10 -14 5 0 10 -9 11 -20 1 -11 -2 -18 -6 -16 -4 3 -6 -9 -5 -27 1
-17 7 -33 13 -35 6 -2 11 -8 11 -13 0 -6 -4 -8 -9 -5 -5 3 -11 -1 -15 -9 -3
-8 -1 -17 5 -21 7 -4 6 -10 -1 -19 -8 -10 -8 -15 0 -20 8 -5 8 -10 0 -20 -8
-10 -7 -16 7 -24 10 -6 13 -11 6 -11 -13 0 -12 -18 1 -39 7 -10 6 -12 -4 -6
-10 6 -12 4 -7 -8 4 -10 1 -17 -6 -17 -8 0 -8 -3 -2 -8 13 -8 13 -22 1 -41 -6
-10 -5 -12 2 -7 14 8 12 -20 -2 -43 -7 -11 -6 -12 5 -6 12 8 12 6 0 -8 -12
-15 -11 -17 5 -17 11 0 15 -3 9 -8 -6 -4 -10 -28 -10 -54 0 -27 -3 -48 -8 -48
-5 0 -1 -7 7 -16 18 -17 21 -28 6 -19 -12 8 -13 -5 -1 -24 6 -9 6 -22 1 -31
-6 -11 -5 -21 1 -27 8 -8 7 -13 0 -17 -6 -4 -11 -12 -11 -17 0 -6 5 -7 10 -4
6 3 10 1 10 -4 0 -6 -7 -11 -16 -11 -8 0 -12 -5 -9 -10 4 -6 11 -8 16 -5 5 3
6 -1 3 -9 -3 -9 -11 -13 -18 -9 -6 4 -5 -1 3 -11 12 -14 12 -19 2 -26 -11 -6
-11 -8 0 -12 12 -4 11 -8 -1 -23 -14 -17 -13 -18 5 -11 16 6 18 5 8 -5 -15
-15 -17 -33 -3 -24 6 3 10 1 10 -4 0 -6 -8 -11 -17 -11 -10 0 -14 -4 -8 -8 6
-4 16 -18 24 -32 13 -22 13 -24 -1 -12 -23 18 -30 -6 -10 -35 13 -20 12 -23
-2 -29 -21 -8 -10 -25 12 -18 13 5 14 4 3 -4 -8 -6 -11 -17 -8 -26 4 -11 1
-16 -11 -16 -16 -1 -16 -1 0 -10 10 -6 14 -18 11 -31 -4 -12 0 -25 8 -30 8 -5
9 -9 3 -9 -7 0 -14 -9 -17 -20 -3 -11 -1 -18 4 -14 5 3 9 1 9 -5 0 -5 -5 -13
-10 -16 -6 -4 -8 -11 -5 -16 4 -5 2 -9 -3 -9 -5 0 -8 -10 -7 -22 2 -13 8 -22
15 -20 10 2 11 0 2 -11 -7 -8 -9 -17 -5 -20 3 -4 1 -7 -6 -7 -7 0 -9 -5 -6
-10 4 -6 12 -7 18 -3 7 4 6 0 -2 -10 -7 -9 -10 -17 -6 -17 4 0 1 -8 -6 -17
-12 -14 -12 -16 0 -8 11 6 13 3 9 -13 -3 -11 0 -29 8 -40 13 -20 10 -32 -10
-32 -6 0 -4 5 4 10 8 5 10 10 4 10 -20 0 -23 -12 -9 -34 19 -28 19 -37 3 -47
-10 -7 -10 -9 0 -9 7 0 10 -4 7 -10 -3 -5 -1 -10 5 -10 6 0 8 -5 4 -12 -12
-19 -12 -48 0 -48 6 0 4 -5 -4 -10 -13 -9 -13 -10 0 -10 13 0 13 -1 0 -10 -10
-6 -11 -10 -2 -10 14 0 12 -21 -3 -32 -6 -5 -5 -8 3 -8 6 0 12 -5 12 -11 0 -5
-6 -7 -12 -3 -7 4 -4 -3 7 -16 11 -13 14 -20 8 -16 -7 4 -13 2 -13 -3 0 -6 4
-11 8 -11 5 0 6 -14 4 -31 -3 -20 0 -34 9 -40 11 -7 10 -9 -5 -9 -20 0 -20 0
0 -16 10 -8 13 -13 7 -9 -7 3 -13 2 -13 -4 0 -5 6 -12 13 -14 9 -4 8 -8 -3
-16 -10 -7 -11 -11 -2 -11 8 0 11 -9 8 -23 -2 -13 0 -30 5 -38 7 -12 9 -12 9
0 0 8 3 12 6 8 3 -3 2 -12 -2 -19 -12 -19 -14 -38 -2 -38 5 0 6 -9 3 -20 -5
-15 -2 -20 12 -21 10 0 13 -3 6 -5 -9 -4 -9 -11 -1 -29 6 -14 16 -21 22 -18 6
4 5 -1 -3 -10 -7 -9 -9 -17 -3 -17 5 0 13 -7 16 -16 3 -8 2 -13 -3 -10 -5 4
-7 -3 -4 -14 3 -11 9 -20 14 -20 5 0 9 -11 9 -25 0 -13 8 -29 18 -35 13 -9 13
-10 1 -7 -9 3 -16 -1 -16 -9 0 -7 4 -11 9 -8 4 3 8 -2 8 -10 0 -9 5 -16 10
-16 6 0 10 -5 10 -11 0 -5 -5 -7 -10 -4 -6 3 -10 3 -10 0 0 -9 27 -35 32 -30
2 2 4 -4 4 -15 0 -10 -4 -16 -8 -14 -4 3 -8 0 -8 -5 0 -6 9 -11 19 -11 13 0
19 -6 18 -19 0 -11 -6 -17 -12 -14 -5 4 1 -6 15 -22 14 -16 19 -25 13 -21 -9
5 -11 2 -7 -8 3 -9 10 -13 15 -10 5 3 6 -2 3 -11 -4 -8 0 -23 7 -32 12 -14 12
-16 0 -8 -10 5 -12 4 -7 -3 4 -7 15 -12 24 -12 15 0 15 -2 2 -10 -13 -9 -13
-12 0 -23 9 -6 15 -22 14 -35 -1 -19 1 -20 15 -10 9 7 13 8 9 4 -4 -5 -2 -16
5 -24 10 -13 9 -14 -3 -7 -9 5 -8 0 4 -13 11 -12 16 -22 12 -22 -4 0 -1 -6 6
-14 7 -8 16 -12 20 -10 4 2 10 -1 14 -7 4 -8 3 -9 -4 -5 -7 4 -12 1 -12 -9 0
-11 5 -15 15 -11 13 5 14 2 4 -15 -8 -15 -8 -19 0 -15 6 4 11 2 11 -4 0 -6 5
-8 12 -4 8 5 9 2 5 -9 -4 -12 -1 -17 11 -17 15 0 15 -2 2 -10 -10 -6 -11 -10
-2 -10 6 0 12 -6 12 -13 0 -7 9 -19 20 -27 11 -8 20 -20 20 -27 0 -7 5 -13 10
-13 6 0 10 -7 10 -16 0 -8 5 -12 10 -9 6 3 10 0 10 -8 0 -7 10 -24 23 -37 12
-14 21 -29 19 -35 -2 -5 -1 -7 3 -3 9 8 35 -16 35 -32 0 -6 5 -8 10 -5 6 3 10
1 10 -5 0 -6 4 -8 10 -5 6 3 7 -1 4 -9 -3 -9 -1 -16 6 -16 6 0 8 -4 5 -10 -3
-5 -2 -10 4 -10 6 0 20 -10 32 -22 12 -13 18 -17 14 -9 -5 9 -4 12 3 7 6 -4 9
-13 5 -21 -3 -9 1 -15 10 -15 9 0 19 -5 23 -12 5 -7 3 -8 -6 -3 -9 5 -11 4 -6
-4 6 -9 11 -9 22 0 9 7 14 8 13 3 -1 -5 -1 -17 0 -28 1 -16 3 -17 18 -5 9 8
14 9 10 3 -4 -7 0 -15 9 -18 9 -3 12 -11 8 -18 -4 -7 -4 -10 1 -6 4 4 19 -5
34 -20 14 -15 33 -28 41 -30 8 -2 20 -8 25 -14 7 -8 6 -8 -4 -3 -10 6 -12 4
-6 -4 4 -7 15 -11 25 -8 13 3 17 0 13 -9 -4 -10 0 -12 13 -7 17 6 18 5 4 -12
-10 -13 -11 -16 -2 -11 8 5 19 1 28 -10 9 -11 13 -13 9 -6 -3 6 -1 12 4 12 6
0 11 -6 11 -14 0 -8 9 -18 20 -21 11 -3 20 -12 20 -18 0 -7 4 -6 10 3 7 11 10
12 10 2 0 -19 30 -48 31 -30 0 7 4 3 10 -10 5 -13 13 -21 18 -17 5 3 13 0 16
-6 4 -5 13 -8 21 -5 8 3 13 0 11 -7 -1 -7 8 -11 20 -11 13 1 20 -3 17 -7 -3
-5 2 -12 10 -15 9 -3 13 -10 10 -15 -3 -5 2 -6 10 -3 9 4 18 -1 22 -10 3 -9
10 -13 15 -10 5 3 9 0 9 -7 0 -8 5 -7 17 2 11 10 14 10 9 2 -4 -8 -1 -13 8
-13 9 0 16 -5 16 -11 0 -6 7 -8 16 -5 10 4 13 2 8 -6 -5 -8 -2 -9 10 -5 10 4
15 3 11 -3 -5 -9 15 -15 38 -11 4 0 7 -7 7 -16 0 -15 2 -14 15 3 11 14 14 15
9 3 -6 -19 11 -35 21 -19 5 8 11 7 21 -1 7 -6 12 -15 9 -18 -2 -4 2 -8 10 -8
8 0 11 5 8 11 -4 6 6 1 21 -12 32 -25 60 -31 30 -6 -16 14 -15 14 9 0 15 -9
33 -14 40 -9 7 4 6 -1 -3 -13 -8 -10 -11 -16 -6 -12 5 4 18 3 29 -3 13 -7 17
-7 13 -1 -3 6 -2 14 4 17 6 4 9 1 8 -7 -2 -7 5 -12 15 -12 9 1 17 -3 17 -8 0
-6 13 -8 29 -6 19 3 27 0 25 -7 -5 -11 8 -15 54 -16 12 -1 22 -5 22 -10 0 -5
5 -9 11 -9 5 0 7 6 3 13 -4 6 2 4 13 -6 11 -9 23 -14 26 -11 4 4 13 1 22 -6 8
-7 21 -10 29 -7 8 3 17 1 20 -6 2 -7 5 -3 5 7 1 19 1 19 15 1 7 -10 24 -20 37
-22 18 -2 20 -1 9 6 -8 5 -18 7 -24 4 -5 -3 -6 -1 -2 5 9 15 58 -6 50 -22 -3
-6 2 -2 10 8 9 11 16 14 16 7 0 -7 5 -9 10 -6 6 3 10 2 10 -4 0 -6 7 -8 15 -5
8 4 21 1 28 -4 8 -7 18 -7 27 -2 8 5 18 6 23 3 5 -3 13 1 18 8 7 11 9 11 9 -2
0 -11 8 -16 28 -15 15 1 37 -2 50 -6 14 -5 22 -3 22 3 0 8 4 8 13 1 8 -7 18
-7 27 -2 8 5 21 5 30 0 11 -6 22 -5 30 3 10 9 11 9 6 0 -5 -8 -1 -13 9 -13 9
0 14 4 11 8 -2 4 4 8 14 8 12 0 16 -5 12 -16 -5 -13 -3 -13 11 -1 9 7 17 10
17 6 0 -5 8 -1 18 8 15 14 19 15 19 2 0 -8 -5 -11 -10 -8 -6 3 -7 1 -3 -6 4
-6 13 -8 19 -4 7 4 23 8 37 8 14 0 30 4 37 8 6 4 15 2 19 -4 5 -8 3 -9 -6 -4
-9 5 -11 4 -6 -4 4 -6 12 -8 18 -5 19 12 108 13 101 0 -3 -6 0 -6 8 1 16 16
33 17 23 1 -5 -7 -3 -8 7 -3 21 14 60 15 53 3 -5 -7 -2 -8 7 -2 19 12 52 12
61 -1 4 -5 8 -1 8 10 0 12 3 16 8 9 4 -6 17 -13 30 -17 19 -4 21 -3 11 9 -10
12 -9 13 7 8 10 -4 25 -12 33 -18 11 -8 13 -8 7 2 -9 15 16 16 31 1 8 -8 13
-7 18 2 6 8 4 10 -5 4 -9 -6 -11 -4 -5 4 5 9 11 9 17 3 6 -6 17 -8 26 -5 11 5
13 3 7 -8 -7 -11 -6 -12 6 -3 8 5 21 10 29 9 8 -1 24 3 35 8 18 10 19 9 5 -8
-14 -17 -14 -18 8 -6 12 6 22 8 22 4 0 -4 5 -1 10 7 8 12 10 12 10 -5 0 -16 2
-17 9 -6 8 13 12 13 27 0 10 -8 15 -9 11 -3 -4 7 2 14 13 17 12 3 17 1 14 -5
-8 -12 29 -6 38 7 4 6 8 1 8 -10 0 -17 2 -17 10 -5 8 12 13 13 29 3 13 -8 22
-9 26 -3 6 10 59 5 78 -7 6 -4 7 -1 3 6 -6 9 4 11 39 7 26 -3 44 -2 40 3 -3 5
4 7 15 4 11 -3 17 -10 13 -17 -4 -7 -1 -7 8 1 9 7 25 11 37 8 12 -2 35 0 51 5
25 7 29 6 24 -8 -5 -14 -3 -15 8 -5 16 16 43 17 33 2 -5 -8 -2 -9 11 -2 10 6
27 8 38 5 15 -4 18 -2 12 9 -6 11 -5 11 5 2 7 -6 19 -9 28 -6 11 5 13 3 7 -8
-7 -11 -5 -11 10 1 21 17 24 17 36 -2 7 -10 9 -8 9 7 1 19 1 19 11 2 6 -10 15
-14 22 -10 19 12 77 12 77 -1 0 -6 5 -4 10 4 9 13 10 13 10 0 0 -9 3 -11 8 -5
11 15 55 18 46 2 -6 -9 -4 -9 7 -2 16 12 39 13 56 2 6 -4 14 -4 17 1 3 6 61 8
61 2 0 -1 8 -3 18 -5 9 -2 15 1 11 6 -3 5 -10 6 -16 3 -7 -4 -8 -2 -4 4 5 9
13 9 27 2 10 -6 19 -7 19 -3 0 4 5 1 10 -7 9 -13 10 -13 10 0 0 13 1 13 10 0
5 -8 10 -10 10 -4 0 6 7 11 15 11 8 0 15 -4 15 -9 0 -5 5 -6 12 -2 16 10 58
11 58 2 0 -11 23 -6 33 7 4 6 11 4 17 -5 9 -13 10 -13 10 0 0 13 1 13 10 0 9
-13 11 -13 21 0 8 12 12 12 16 2 4 -10 8 -10 19 -1 11 9 14 9 14 -1 0 -10 3
-10 15 0 11 9 15 9 15 1 0 -12 44 -11 56 2 4 4 12 7 18 7 6 0 4 -5 -4 -10 -12
-8 -10 -10 8 -10 16 0 21 4 16 13 -6 8 -3 8 9 -1 9 -8 21 -11 27 -7 6 4 10 3
9 -2 -3 -19 2 -27 10 -14 6 8 14 10 22 5 20 -12 38 -14 45 -3 9 15 24 10 24
-7 0 -14 2 -14 16 -3 21 17 44 20 44 6 0 -7 5 -5 10 3 6 10 10 11 10 3 0 -7 5
-13 11 -13 5 0 8 4 5 8 -3 4 19 7 47 6 71 -3 69 -2 61 -16 -5 -8 -1 -8 10 1
18 15 59 23 51 10 -3 -4 2 -10 11 -13 10 -4 13 -2 8 6 -5 7 -2 9 9 5 9 -3 18
-1 21 6 3 9 5 8 5 -1 1 -7 6 -10 11 -7 6 4 17 2 25 -5 10 -8 15 -8 21 1 5 8 3
9 -6 4 -9 -6 -11 -4 -5 5 6 10 11 9 22 -5 12 -17 13 -18 13 -1 0 9 5 14 10 11
6 -4 8 -12 4 -18 -3 -7 1 -4 9 6 11 14 16 15 20 5 4 -11 7 -10 15 1 8 10 10
11 14 1 2 -8 12 -14 21 -16 9 -1 15 2 11 7 -3 5 -11 6 -17 3 -7 -4 -8 -3 -4 1
10 12 37 15 37 5 0 -4 7 -10 14 -13 11 -4 13 -1 9 11 -5 14 -3 15 8 5 14 -14
33 -18 26 -6 -3 5 6 9 19 9 13 1 24 -3 24 -10 0 -6 5 -4 10 4 9 13 10 13 10 0
0 -13 1 -13 10 0 8 13 10 12 10 -4 0 -19 0 -19 13 -1 10 12 19 15 28 9 19 -11
61 -12 77 -1 8 6 12 5 12 -4 0 -9 3 -10 8 -4 10 14 32 17 32 4 0 -8 5 -8 15 1
12 10 15 10 15 0 0 -10 3 -10 14 -1 10 9 16 9 21 1 5 -8 11 -8 21 1 11 9 14 8
14 -2 0 -11 2 -11 10 1 9 13 11 13 19 1 8 -12 12 -12 25 -2 12 10 16 10 16 2
0 -7 5 -9 10 -6 6 4 8 12 4 18 -3 7 2 3 10 -7 9 -11 16 -14 16 -8 0 14 21 12
32 -3 5 -6 8 -5 8 3 0 8 5 10 13 5 16 -10 38 -13 32 -4 -2 4 2 8 10 8 8 0 12
-4 9 -9 -3 -4 2 -8 11 -8 9 0 13 4 10 10 -3 6 1 7 9 4 9 -3 14 -9 12 -13 -3
-4 16 -6 40 -4 30 2 43 0 39 -7 -4 -7 2 -7 19 0 18 6 26 6 26 -1 0 -6 4 -7 10
-4 5 3 19 1 30 -5 15 -8 20 -8 20 2 0 6 6 4 13 -7 11 -14 16 -15 22 -5 6 10 9
9 16 -1 8 -12 10 -12 18 -1 7 11 9 11 14 -2 4 -9 11 -16 17 -16 6 0 9 4 6 9
-4 5 3 7 14 4 11 -3 18 -8 16 -12 -5 -7 16 -11 66 -14 20 -2 24 -5 16 -15 -8
-9 -7 -11 5 -7 8 4 18 1 22 -5 5 -8 10 -8 20 0 9 8 15 8 20 0 3 -5 15 -10 26
-10 10 0 19 -6 19 -12 0 -9 3 -10 8 -2 4 6 17 10 30 9 14 -1 22 4 22 14 0 10
3 12 8 5 7 -12 39 -11 50 2 4 4 -1 4 -10 1 -10 -4 -18 -2 -18 3 0 6 5 10 10
10 6 0 19 9 29 19 13 13 27 18 43 14 21 -6 22 -5 9 11 -13 15 -12 16 13 6 15
-5 25 -6 22 -1 -3 4 4 17 17 27 18 16 19 16 8 2 -16 -22 1 -24 22 -4 11 11 17
12 27 3 10 -9 11 -9 6 1 -4 6 -2 12 4 12 6 0 9 4 6 9 -7 10 13 9 31 -2 6 -4
15 -2 19 4 5 8 3 9 -6 4 -9 -5 -11 -4 -6 4 6 9 11 9 22 0 11 -9 15 -8 20 6 5
13 9 14 15 3 7 -10 9 -10 9 2 0 12 2 12 9 2 7 -11 11 -11 23 1 10 11 19 12 33
5 12 -7 16 -7 11 0 -3 6 -2 13 4 17 5 3 10 1 10 -6 0 -10 3 -10 12 -1 15 15
31 16 22 0 -4 -6 3 -4 15 5 13 8 30 13 39 10 11 -5 13 -3 7 8 -7 11 -6 12 6 2
9 -8 20 -9 29 -3 13 8 13 10 1 10 -8 0 -12 3 -9 6 4 3 16 0 28 -6 13 -7 20 -8
16 -2 -3 6 -2 13 4 17 5 3 10 0 10 -7 1 -8 6 -6 15 6 11 14 15 16 15 5 1 -10
3 -9 11 4 6 9 14 15 20 12 5 -4 9 -1 9 5 0 6 5 8 10 5 6 -3 13 1 16 9 4 11 14
14 29 10 13 -3 26 0 30 6 6 9 10 9 16 -1 6 -10 9 -11 9 -1 0 6 9 12 19 12 11
0 23 5 27 12 5 7 3 8 -6 3 -9 -6 -11 -4 -5 4 4 8 11 9 17 3 10 -10 58 -4 58 8
0 4 14 10 31 14 21 4 28 10 23 18 -6 10 -5 10 8 0 13 -10 17 -10 21 2 4 9 15
13 27 11 11 -2 20 1 20 7 0 5 7 7 15 4 9 -3 18 1 21 9 4 8 10 12 15 9 5 -3 9
-1 9 5 0 6 7 7 17 4 12 -5 14 -3 8 7 -6 10 -4 12 8 7 8 -3 21 1 27 8 7 8 16
12 21 10 4 -3 12 3 18 12 5 10 11 17 13 15 6 -7 58 18 58 27 0 6 7 7 17 4 11
-4 14 -3 9 5 -4 7 -1 12 8 12 9 0 16 5 16 11 0 5 5 7 10 4 6 -3 10 -1 10 5 0
6 4 9 9 6 5 -3 11 1 15 9 3 8 12 12 21 9 11 -4 14 -2 9 9 -4 10 0 15 13 14 10
-1 17 4 15 11 -1 8 2 11 8 7 5 -3 10 -1 10 5 0 7 6 10 14 7 8 -3 17 1 20 10 4
8 13 13 21 9 12 -4 13 -2 5 13 -8 16 -7 18 12 13 17 -4 20 -2 15 12 -6 14 -3
15 13 6 16 -8 20 -8 18 2 -2 7 5 12 14 12 10 -1 14 4 11 12 -3 8 -10 11 -16 7
-6 -3 -7 -1 -3 6 4 6 11 9 16 6 5 -3 20 0 34 6 20 10 23 15 15 26 -9 11 -8 12
5 7 9 -3 16 -1 16 5 0 6 4 10 9 9 5 -2 20 9 34 24 14 16 32 28 39 28 9 0 9 3
-2 10 -13 8 -12 10 3 10 9 0 17 5 17 11 0 5 5 7 12 3 7 -4 8 -3 4 4 -4 7 -2
12 4 12 7 0 10 7 7 14 -4 10 -1 13 9 9 10 -4 17 2 21 17 4 16 8 18 14 8 7 -10
9 -10 9 3 0 20 35 61 44 52 4 -4 4 1 0 11 -5 14 -4 17 4 12 11 -7 17 6 13 28
-1 5 4 4 12 -2 10 -9 14 -9 15 1 6 45 9 57 17 64 4 5 5 3 1 -4 -3 -6 -2 -14 4
-18 9 -6 15 8 11 29 -1 5 5 6 13 3 10 -4 13 -1 9 9 -3 7 0 14 6 14 6 0 10 3
10 8 -3 19 2 33 10 27 5 -3 12 -1 16 5 3 5 1 10 -5 10 -6 0 -1 10 10 22 11 12
18 28 15 36 -2 7 0 10 5 7 6 -3 10 -1 10 5 0 6 4 8 10 5 6 -4 7 1 3 11 -4 12
-3 15 6 10 6 -4 11 -4 10 1 -3 19 2 46 8 40 12 -12 32 27 21 41 -8 10 -7 11 7
6 12 -5 16 -4 12 3 -4 6 -3 13 3 15 5 1 11 13 13 26 2 13 16 35 31 49 18 17
26 32 23 45 -5 16 -3 17 10 6 15 -12 15 -11 4 9 -10 19 -9 22 4 17 11 -5 13
-2 9 10 -3 9 -1 16 6 16 6 0 8 5 5 10 -3 6 2 10 12 10 14 0 15 2 4 9 -9 6 -10
11 -2 15 6 4 8 12 5 18 -4 6 -2 8 3 5 12 -8 26 20 17 34 -3 5 -1 9 5 9 5 0 13
9 16 20 4 11 10 18 14 16 4 -3 8 4 9 15 1 10 3 28 4 38 2 14 6 17 14 10 9 -8
11 -5 7 12 -5 17 -3 21 9 16 12 -4 15 1 14 23 -2 25 0 27 13 17 12 -10 13 -9
1 13 -7 14 -9 22 -6 18 4 -3 16 1 25 10 13 13 15 21 7 31 -8 11 -8 13 2 7 7
-4 12 -2 12 4 0 6 4 9 9 5 5 -3 13 0 17 6 4 8 3 9 -4 5 -7 -4 -12 -2 -12 3 0
6 8 11 18 11 14 0 15 2 2 10 -13 9 -7 14 12 11 4 0 11 11 14 25 4 16 12 23 20
20 8 -3 13 -2 13 2 -4 21 2 42 12 42 5 0 7 -5 3 -12 -4 -7 -3 -8 5 -4 9 6 9
11 -1 24 -11 13 -10 15 4 9 12 -4 15 -2 11 8 -3 8 2 18 11 21 9 3 13 11 9 17
-4 6 0 8 8 5 8 -2 22 4 32 14 19 20 9 26 -11 6 -9 -9 -12 -9 -12 -1 0 7 9 15
20 18 11 3 20 13 20 20 0 9 6 12 15 9 12 -5 14 -2 8 12 -6 16 -5 17 9 6 13
-10 18 -10 24 -1 4 7 3 9 -3 6 -6 -4 -13 -1 -16 7 -4 10 0 12 15 8 14 -3 19
-1 14 6 -4 7 -3 12 3 12 18 0 71 52 64 62 -3 6 -1 8 4 5 6 -4 13 0 17 8 3 8
12 15 21 15 8 0 15 6 15 14 0 8 8 17 18 21 14 5 15 4 5 -6 -7 -7 -13 -16 -13
-21 0 -4 15 8 34 26 24 25 37 31 45 23 8 -8 9 -5 7 10 -3 14 1 20 12 19 10 0
16 5 14 13 -3 12 0 12 12 1 14 -10 16 -10 16 5 0 10 3 15 7 12 3 -4 12 1 20
11 8 9 11 11 8 4 -6 -11 -3 -12 14 -3 12 7 26 9 31 6 6 -4 10 -3 9 2 -1 4 1
16 6 26 6 15 10 15 23 5 12 -10 14 -10 8 0 -5 8 0 12 13 12 11 0 25 9 31 20
11 20 29 23 42 5 4 -5 8 1 8 15 0 17 3 21 9 12 6 -11 11 -10 24 3 9 8 19 16
22 15 3 0 7 1 10 1 7 2 41 6 61 8 9 1 12 6 8 14 -5 7 0 6 11 -3 11 -9 16 -10
11 -2 -5 8 2 12 23 12 18 0 31 5 31 13 0 9 3 8 9 -2 7 -10 10 -10 13 -1 2 7
18 13 36 14 18 0 32 5 32 10 0 5 3 6 7 3 3 -4 14 0 24 9 11 10 19 12 24 4 3
-6 1 -9 -6 -8 -6 2 -13 -2 -16 -9 -3 -7 3 -9 17 -6 12 3 24 12 27 19 3 8 10
14 15 14 6 0 7 -8 4 -17 -6 -15 -4 -15 14 2 11 10 23 15 27 12 3 -4 0 -7 -7
-7 -7 0 -11 -2 -8 -5 9 -9 38 7 32 17 -4 6 3 5 15 -1 16 -9 21 -9 21 1 0 9 3
9 10 -2 7 -11 10 -11 10 -2 0 8 5 10 12 6 7 -5 9 -2 5 8 -4 12 0 15 16 11 16
-3 18 -2 9 5 -8 5 -14 13 -14 17 0 4 6 12 14 16 10 7 10 9 1 9 -7 0 -13 9 -13
21 0 11 -4 17 -10 14 -6 -4 -8 6 -6 24 2 21 0 28 -10 24 -10 -3 -14 3 -14 21
0 14 -4 26 -10 26 -5 0 -10 7 -10 15 0 7 -8 19 -17 24 -10 6 -14 11 -10 11 4
0 -1 10 -13 22 -23 25 -26 38 -7 39 6 0 2 4 -10 9 -13 5 -23 17 -23 25 0 10
-5 13 -12 9 -7 -5 -8 -3 -4 5 5 7 0 19 -10 27 -11 9 -14 13 -8 10 6 -3 11 1
11 9 0 8 -4 12 -9 9 -4 -3 -8 0 -8 6 0 6 -5 8 -12 4 -6 -4 -8 -3 -5 3 4 6 -2
21 -13 33 -11 12 -17 27 -14 31 3 5 -2 9 -10 9 -8 0 -25 20 -37 45 -12 24 -26
42 -31 39 -4 -3 -9 0 -9 5 -1 6 -2 17 -3 24 -1 6 -7 11 -14 9 -7 -1 -12 8 -12
20 0 17 -3 19 -9 10 -7 -11 -10 -10 -15 3 -3 9 -3 21 0 27 4 5 -4 5 -16 -2
-12 -7 -20 -7 -16 -2 3 6 -1 17 -10 26 -8 9 -12 22 -8 28 4 7 4 10 0 6 -4 -3
-21 7 -37 23 -17 16 -35 26 -41 23 -6 -4 -8 -3 -5 4 12 18 -4 44 -24 39 -16
-4 -17 -2 -8 14 5 11 6 19 2 18 -32 -5 -44 2 -38 24 4 15 3 18 -3 9 -7 -11
-12 -11 -24 2 -9 8 -19 12 -23 8 -5 -4 -5 -2 -2 4 8 14 -31 47 -45 38 -7 -4
-8 -3 -4 4 4 7 2 12 -4 12 -5 0 -20 15 -31 33 -12 17 -18 23 -14 12 6 -20 6
-20 -13 0 -13 14 -16 22 -8 27 7 5 4 8 -7 8 -20 0 -49 24 -40 33 3 4 -4 5 -15
2 -16 -3 -19 0 -15 12 5 13 2 15 -11 10 -11 -5 -15 -3 -10 5 5 7 2 9 -9 5 -12
-4 -15 -1 -12 14 4 18 2 19 -12 7 -12 -9 -15 -9 -9 0 4 7 1 12 -8 12 -9 0 -16
5 -16 10 0 6 -5 10 -10 10 -6 0 -23 13 -38 28 -15 15 -22 21 -17 12 6 -9 -2
-4 -16 10 -14 15 -33 29 -42 33 -9 3 -17 12 -17 19 0 9 -3 8 -10 -2 -8 -12
-10 -11 -10 6 0 12 -7 25 -16 28 -15 6 -15 4 -3 -11 9 -12 4 -10 -15 5 -15 12
-33 19 -39 15 -5 -3 -7 -1 -4 4 4 6 -3 19 -14 29 -19 17 -20 17 -13 -1 5 -13
4 -16 -4 -11 -7 4 -12 14 -12 22 0 8 -7 14 -15 14 -8 0 -15 4 -15 8 0 11 -56
43 -71 40 -13 -3 -17 13 -23 87 -3 29 1 56 7 64 9 12 9 13 0 7 -7 -4 -13 -2
-13 3 0 6 5 11 11 11 5 0 7 5 4 10 -4 6 -11 7 -17 4 -6 -4 -4 3 5 15 16 24 13
56 -6 44 -6 -4 -7 -1 -1 8 13 22 14 70 1 63 -7 -3 -3 2 7 10 11 9 15 16 9 16
-6 0 -9 14 -7 32 2 17 -1 37 -7 44 -7 8 -7 14 1 19 14 9 13 28 -2 19 -10 -6
-10 -4 0 7 16 17 16 32 0 23 -9 -5 -9 -2 1 9 10 13 11 20 2 30 -6 8 -8 17 -4
21 13 13 12 106 -1 106 -7 0 -7 3 -1 8 15 11 17 64 2 56 -9 -5 -9 -3 1 7 16
17 16 32 0 23 -10 -6 -10 -5 -1 7 10 12 10 18 0 29 -9 10 -9 11 0 6 9 -5 12 1
11 18 -1 15 -6 26 -10 26 -4 0 -8 5 -8 11 0 5 4 8 9 5 5 -3 11 1 15 9 3 8 1
17 -3 19 -9 6 -7 49 3 65 4 5 2 12 -2 15 -10 6 -8 54 2 64 3 3 -2 14 -11 25
-10 11 -13 18 -8 14 7 -3 11 19 12 64 2 52 -1 68 -10 62 -7 -4 -6 1 2 11 11
13 11 20 3 28 -9 9 -7 17 6 32 9 11 12 16 5 13 -6 -4 -14 -3 -18 3 -3 5 2 10
12 10 11 0 14 3 7 8 -6 4 -14 15 -17 26 -6 14 -4 17 9 12 15 -6 15 -4 1 17
-12 19 -13 26 -1 41 7 11 10 24 6 30 -4 6 -7 18 -7 26 0 8 -3 20 -7 25 -4 6
-3 17 3 25 13 21 11 32 -3 24 -8 -5 -8 -1 1 10 9 10 11 20 5 24 -5 4 -10 13
-12 21 -3 12 -1 12 14 0 16 -13 16 -12 5 9 -6 12 -8 22 -4 22 4 0 1 5 -7 10
-8 5 -10 10 -5 10 14 0 15 50 1 50 -6 0 -4 5 4 10 8 5 11 10 6 10 -5 0 -3 7 4
15 11 13 10 14 -6 8 -17 -6 -17 -5 -5 10 11 14 11 17 0 17 -9 0 -10 3 -4 8 15
11 17 74 2 65 -7 -4 -6 1 2 11 13 15 13 19 0 27 -10 6 -11 9 -1 9 7 0 10 5 7
10 -3 6 0 10 7 10 8 0 6 5 -5 11 -15 9 -16 13 -6 26 10 12 10 16 -2 24 -11 7
-11 9 0 9 11 0 11 3 1 15 -10 12 -10 15 0 15 9 0 9 4 -1 17 -10 11 -10 14 -1
9 14 -8 14 0 3 29 -5 12 -4 25 2 33 8 10 7 16 -4 23 -8 5 -9 9 -4 9 14 0 14
43 1 52 -7 5 -8 8 -1 8 6 0 11 9 12 20 1 13 -2 18 -10 13 -7 -4 -6 0 2 10 11
14 11 17 0 17 -9 0 -10 3 -4 8 13 9 20 46 7 38 -5 -3 -9 1 -9 9 0 8 4 12 7 10
4 -3 8 6 8 20 0 14 -5 22 -11 18 -6 -4 -7 -1 -1 8 12 20 14 38 3 45 -5 3 -5
13 1 25 8 14 7 19 -2 19 -8 0 -9 3 -3 8 13 8 13 22 1 41 -6 10 -5 12 2 7 7 -4
12 -3 12 3 0 5 -5 13 -10 16 -8 5 -7 11 1 21 9 11 8 14 -2 14 -11 0 -11 2 1
10 13 9 13 11 0 20 -8 5 -10 10 -4 10 5 0 10 11 10 25 0 14 -5 25 -10 25 -6 0
-5 4 3 9 9 6 10 11 2 15 -7 4 -7 15 -1 31 6 16 6 27 -1 31 -6 4 -6 11 2 20 9
11 8 14 -2 14 -12 0 -12 2 0 9 9 6 10 10 2 16 -9 5 -9 10 0 21 9 11 8 14 -2
14 -11 0 -11 2 1 10 11 7 11 10 2 10 -10 0 -10 5 -2 20 8 15 8 20 -2 20 -10 0
-10 2 1 9 10 6 10 10 1 16 -9 6 -9 10 1 16 10 6 11 9 2 9 -7 0 -13 5 -13 11 0
5 4 8 8 5 5 -3 9 1 9 9 0 8 -5 15 -10 15 -5 0 -3 8 4 17 10 11 10 14 2 9 -16
-9 -16 -1 -3 25 8 14 7 19 -1 19 -8 0 -7 5 2 17 8 10 9 14 2 10 -7 -5 -12 -1
-12 10 0 10 -2 30 -4 46 -2 16 0 27 7 27 6 0 4 5 -4 10 -13 9 -13 10 0 10 13
0 13 1 0 10 -11 7 -11 10 -2 10 8 0 10 5 5 12 -4 7 -6 26 -5 43 2 23 1 27 -7
15 -7 -9 -11 -10 -11 -3 0 6 5 15 10 18 8 5 7 12 -2 23 -10 12 -10 14 0 8 12
-7 17 6 5 17 -12 12 -12 57 0 57 8 0 8 3 2 8 -5 4 -12 18 -13 32 -2 14 -9 31
-15 39 -10 12 -9 13 7 7 20 -7 20 -7 0 15 -10 12 -14 19 -7 16 12 -7 12 17 0
29 -4 4 -7 20 -7 36 0 20 -4 27 -12 22 -7 -5 -8 -3 -3 7 12 19 14 49 2 49 -5
0 -7 7 -3 15 3 8 1 15 -3 15 -5 0 -7 10 -3 23 5 20 4 21 -13 7 -17 -14 -17
-13 -8 5 6 11 8 29 6 40 -2 11 -5 26 -5 32 -1 10 -4 10 -16 0 -13 -10 -14 -9
-3 11 8 15 8 22 1 22 -6 0 -8 5 -5 10 4 6 1 17 -5 25 -7 8 -9 15 -6 15 4 0 1
10 -6 23 -6 12 -13 29 -14 37 -2 8 -11 21 -21 29 -15 12 -15 13 -1 8 14 -5 15
-2 6 24 -5 16 -14 26 -19 23 -5 -3 -9 4 -9 15 0 12 -6 21 -12 21 -10 0 -10 2
0 9 11 7 10 9 -3 15 -9 3 -13 10 -10 16 3 5 1 10 -6 10 -8 0 -7 5 2 17 8 9 9
14 4 11 -6 -4 -17 -3 -25 3 -13 7 -13 9 0 9 10 0 11 3 3 8 -6 4 -13 14 -15 22
-2 8 -10 21 -18 28 -10 9 -10 11 -2 7 11 -6 12 -3 2 14 -6 12 -17 24 -24 27
-7 3 -12 16 -10 30 1 13 -1 22 -6 19 -4 -2 -16 5 -26 17 -11 12 -13 18 -6 14
6 -4 12 -2 12 3 0 6 -6 11 -14 11 -8 0 -18 5 -22 12 -5 7 -3 8 5 3 9 -5 9 -1
-1 16 -7 13 -19 28 -26 32 -7 5 -9 13 -6 19 4 6 3 8 -3 5 -6 -4 -17 1 -24 10
-10 12 -10 14 -1 9 7 -4 12 -2 12 5 0 7 -8 9 -21 6 -16 -4 -18 -3 -8 9 9 11 8
14 -4 14 -11 0 -14 5 -10 17 4 11 3 14 -5 9 -7 -4 -12 -2 -12 3 0 17 -33 51
-50 51 -13 0 -13 1 0 10 13 9 7 14 -12 11 -4 0 -4 7 -1 16 4 10 2 14 -4 10 -6
-4 -14 0 -17 9 -3 8 -11 12 -17 8 -7 -4 -9 -3 -6 3 3 5 -3 16 -13 23 -14 10
-16 17 -9 26 8 9 5 11 -11 7 -14 -4 -20 -1 -18 8 2 8 -4 13 -15 13 -15 -2 -16
1 -5 14 8 10 9 13 1 9 -7 -4 -14 1 -18 14 -4 11 -9 18 -12 15 -3 -2 -15 6 -28
20 -12 13 -27 24 -32 24 -6 0 -13 8 -16 19 -2 10 -19 24 -36 32 -17 8 -29 19
-27 26 3 8 -1 10 -11 6 -12 -5 -14 -3 -8 7 6 10 4 12 -8 7 -10 -4 -18 0 -22
12 -6 19 -61 48 -79 43 -5 -2 -4 4 4 12 11 14 8 16 -20 16 -27 0 -30 2 -21 14
10 12 8 14 -11 9 -18 -4 -20 -3 -8 6 13 9 12 11 -4 11 -10 0 -25 8 -33 18 -8
9 -12 11 -8 5 4 -9 1 -11 -9 -7 -9 3 -13 10 -10 15 5 8 -18 14 -39 10 -5 -1
-5 4 -1 10 5 9 2 10 -9 6 -11 -4 -14 -2 -10 9 4 10 0 12 -11 8 -10 -4 -16 -1
-16 7 0 11 -3 11 -10 -1 -8 -12 -10 -10 -10 10 0 20 -2 22 -10 10 -8 -12 -10
-12 -10 -1 0 8 -3 12 -6 8 -4 -3 -13 1 -21 9 -8 8 -19 12 -24 9 -5 -4 -9 -1
-9 4 0 6 -7 11 -16 11 -8 0 -12 5 -9 10 9 14 -8 12 -24 -2 -11 -10 -13 -10 -7
0 4 6 2 12 -4 12 -6 0 -8 5 -5 10 6 9 -14 14 -42 11 -7 -1 -13 3 -13 9 0 5 -3
9 -7 9 -21 -3 -33 2 -27 13 4 6 3 8 -4 4 -6 -3 -13 -2 -17 4 -3 5 -12 10 -18
10 -7 0 -6 -4 3 -10 10 -7 11 -10 2 -10 -7 0 -15 7 -18 15 -4 8 -14 15 -24 15
-11 0 -22 5 -25 10 -4 6 -10 8 -15 5 -4 -3 -13 2 -20 11 -7 8 -19 13 -26 10
-7 -3 -15 0 -18 7 -2 7 -5 3 -6 -8 l-1 -20 -17 20 c-18 20 -30 25 -64 28 -10
1 -18 5 -18 9 0 4 -7 5 -15 2 -8 -3 -22 1 -31 10 -8 9 -21 13 -27 9 -20 -12
-36 -12 -31 1 3 9 -4 11 -27 8 -24 -4 -30 -2 -24 8 6 10 4 11 -6 4 -19 -12
-39 -14 -39 -4 0 12 -70 18 -70 5 0 -5 -5 -2 -11 7 -8 14 -15 15 -35 8 -17 -7
-23 -7 -19 0 9 14 -8 12 -24 -2 -11 -11 -12 -10 -6 1 6 11 3 13 -12 9 -11 -3
-28 -1 -38 5 -12 7 -16 6 -11 -1 5 -8 -2 -8 -24 0 -17 5 -34 8 -37 4 -3 -3
-13 0 -21 7 -13 10 -15 9 -8 -8 5 -15 4 -17 -5 -8 -6 6 -18 9 -25 6 -8 -3 -14
1 -14 8 0 11 -3 11 -10 -1 -5 -8 -10 -10 -10 -4 0 13 -42 13 -52 -1 -5 -6 -8
-5 -8 3 0 6 -5 12 -11 12 -5 0 -7 -6 -3 -12 6 -10 4 -10 -8 0 -12 10 -18 10
-23 1 -6 -8 -9 -8 -15 1 -5 8 -13 9 -21 4 -17 -10 -49 -13 -49 -4 0 8 -57 6
-66 -3 -4 -4 -12 -7 -18 -7 -6 0 -5 4 3 9 8 5 -10 8 -48 7 -38 -2 -61 2 -61 8
0 6 -7 2 -15 -8 -8 -11 -15 -14 -15 -8 0 7 -12 11 -28 10 -15 -1 -34 2 -41 7
-10 5 -12 4 -7 -3 11 -19 -5 -14 -20 6 -12 14 -13 15 -8 1 3 -10 0 -20 -7 -25
-7 -4 -10 -3 -6 3 4 6 0 14 -9 17 -8 3 -12 2 -9 -4 3 -6 1 -10 -4 -10 -6 0
-11 6 -11 13 0 7 -7 4 -15 -7 -8 -11 -15 -15 -15 -9 0 6 -12 13 -26 16 -18 3
-24 1 -20 -8 4 -10 -1 -10 -22 1 -18 9 -28 10 -33 3 -4 -7 -9 -5 -12 5 -4 9
-13 13 -22 10 -8 -3 -13 -9 -11 -13 3 -4 -10 -5 -29 -3 -18 2 -43 -2 -56 -9
-21 -11 -22 -10 -12 3 10 12 10 15 -5 15 -9 0 -23 -7 -30 -16 -8 -9 -11 -11
-8 -4 4 6 2 14 -4 18 -5 3 -10 0 -10 -7 0 -9 -3 -9 -10 2 -8 12 -10 12 -10 1
0 -11 -3 -11 -15 -1 -8 7 -15 9 -15 4 0 -5 -18 -9 -39 -9 -22 0 -37 3 -35 6 4
7 -46 3 -53 -5 -3 -3 -14 -1 -24 5 -14 7 -19 6 -19 -3 0 -6 -7 -3 -15 8 -15
19 -15 19 -8 -1 6 -18 5 -18 -10 -6 -11 9 -17 10 -17 2 0 -6 -5 -11 -11 -11
-5 0 -8 4 -5 8 3 5 -15 6 -39 2 -30 -5 -45 -3 -46 4 0 6 -4 2 -9 -9 -7 -17 -9
-17 -9 -2 -1 9 -6 17 -12 17 -5 0 -8 -4 -5 -9 4 -5 -9 -6 -29 -1 -27 6 -35 5
-35 -6 0 -8 -5 -14 -11 -14 -5 0 -8 4 -4 9 3 5 1 12 -5 16 -5 3 -10 0 -10 -7
0 -9 -3 -9 -10 2 -8 12 -10 12 -10 1 0 -11 -3 -11 -15 -1 -9 8 -15 8 -15 2 0
-7 -10 -8 -30 -2 -19 5 -30 5 -30 -1 0 -6 -9 -5 -22 2 -18 10 -20 9 -14 -6 5
-14 3 -15 -6 -8 -19 15 -58 23 -58 11 0 -5 -6 -6 -12 -1 -19 11 -39 13 -32 2
3 -5 -2 -9 -11 -9 -9 0 -14 4 -11 8 3 5 -1 9 -9 9 -8 0 -12 -4 -9 -9 3 -4 0
-8 -5 -8 -6 0 -11 6 -12 13 0 6 -4 3 -9 -8 l-9 -20 0 20 c-1 15 -3 17 -10 7
-6 -11 -10 -10 -15 5 -7 17 -8 17 -22 -1 -10 -15 -14 -16 -15 -5 0 8 -4 6 -9
-6 -7 -17 -9 -17 -9 -2 -1 9 -5 17 -11 17 -5 0 -10 -8 -10 -17 0 -11 -3 -14
-8 -7 -4 6 -17 13 -29 16 -17 5 -23 2 -24 -10 0 -14 -2 -13 -9 3 -5 11 -9 15
-9 9 -1 -11 -36 -12 -47 -1 -4 4 -13 -1 -21 -11 -8 -9 -12 -11 -8 -4 3 6 3 12
-2 13 -4 0 -25 1 -45 3 -21 2 -38 0 -38 -4 0 -12 -42 -4 -51 11 -7 11 -9 11
-9 -4 0 -15 -3 -16 -20 -7 -16 9 -20 8 -20 -5 0 -8 -5 -15 -11 -15 -5 0 -8 4
-4 9 3 5 1 12 -5 16 -5 3 -10 0 -10 -7 0 -9 -3 -9 -10 2 -8 12 -10 12 -10 1 0
-11 -3 -11 -15 -1 -8 7 -15 9 -15 4 0 -11 -91 -12 -107 -1 -7 5 -13 4 -13 -1
0 -5 -20 -6 -45 -2 -37 6 -45 4 -46 -9 0 -12 -3 -11 -9 4 -5 12 -9 14 -9 6 -1
-11 -6 -10 -21 4 -16 14 -19 15 -15 4 6 -17 -19 -20 -43 -5 -6 4 -12 3 -12 -3
0 -6 -11 -6 -30 -1 -16 5 -30 5 -30 1 0 -13 -41 -5 -51 10 -7 11 -9 11 -9 -4
0 -10 -4 -16 -8 -13 -5 3 -20 7 -35 10 -20 3 -27 1 -28 -12 0 -14 -2 -14 -8 2
-7 19 -8 19 -14 1 -7 -17 -8 -17 -27 0 -11 10 -20 14 -20 8 0 -11 -29 -11 -48
1 -6 4 -12 3 -12 -3 0 -6 -11 -6 -30 -1 -16 5 -30 5 -30 1 0 -13 -41 -5 -51
10 -7 12 -9 11 -9 -2 0 -14 -6 -16 -35 -9 -29 7 -35 5 -36 -9 0 -12 -2 -12 -9
4 l-9 20 -1 -20 -1 -20 -9 20 c-5 12 -9 14 -9 6 -1 -11 -6 -10 -21 4 -16 14
-19 15 -15 4 6 -17 -19 -20 -43 -5 -6 4 -12 3 -12 -2 0 -4 -22 -6 -50 -2 -41
5 -50 4 -50 -9 0 -10 -3 -12 -8 -5 -4 6 -17 13 -29 16 -21 6 -28 -2 -24 -25 1
-5 -3 -6 -9 -2 -6 3 -8 10 -5 15 3 5 1 11 -5 15 -5 3 -10 0 -10 -7 0 -8 -3 -9
-8 -3 -8 12 -62 14 -62 3 0 -4 -10 -4 -22 1 -13 4 -40 6 -62 3 -31 -4 -37 -2
-32 9 4 8 1 6 -7 -4 -11 -14 -16 -15 -20 -5 -4 10 -6 10 -6 -1 -1 -11 -4 -11
-16 -1 -8 7 -15 8 -15 3 0 -6 -19 -7 -52 -2 -32 5 -54 5 -56 -1 -2 -5 -9 -7
-15 -5 -26 9 -86 12 -99 4 -7 -5 -22 -2 -36 7 -20 13 -23 13 -28 0z m2173 -18
c-3 -8 -6 -5 -6 6 -1 11 2 17 5 13 3 -3 4 -12 1 -19z m-1972 2 c3 -5 1 -10 -4
-10 -6 0 -11 5 -11 10 0 6 2 10 4 10 3 0 8 -4 11 -10z m235 0 c8 -5 11 -10 5
-10 -5 0 -17 5 -25 10 -8 5 -10 10 -5 10 6 0 17 -5 25 -10z m-1103 -14 c0 -8
-6 -12 -15 -9 -11 5 -11 7 0 14 7 5 13 9 14 9 0 0 1 -6 1 -14z m-857 -256 c0
-5 -5 -10 -11 -10 -5 0 -7 5 -4 10 3 6 8 10 11 10 2 0 4 -4 4 -10z m-1215
-2390 c-3 -5 -11 -10 -16 -10 -6 0 -7 5 -4 10 3 6 11 10 16 10 6 0 7 -4 4 -10z
m9565 -4314 c0 -2 -7 -7 -16 -10 -8 -3 -12 -2 -9 4 6 10 25 14 25 6z m-300
-200 c0 -2 -7 -9 -15 -16 -13 -11 -14 -10 -9 4 5 14 24 23 24 12z"/>
<path d="M13280 5766 c0 -2 8 -10 18 -17 15 -13 16 -12 3 4 -13 16 -21 21 -21
13z"/>
<path d="M11826 4221 c-4 -5 -2 -12 3 -15 5 -4 12 -2 15 3 4 5 2 12 -3 15 -5
4 -12 2 -15 -3z"/>
<path d="M4270 3270 c0 -5 5 -10 11 -10 5 0 7 5 4 10 -3 6 -8 10 -11 10 -2 0
-4 -4 -4 -10z"/>
<path d="M8026 2908 c3 -5 10 -6 15 -3 13 9 11 12 -6 12 -8 0 -12 -4 -9 -9z"/>
</g>
</svg>
